<svg width="116" height="87" viewBox="0 0 116 87" fill="none" xmlns="http://www.w3.org/2000/svg"><path d="M15.587 80.6429C21.9777 80.6429 27.1584 75.4404 27.1584 69.0227C27.1584 62.6051 21.9777 57.4026 15.587 57.4026C9.1963 57.4026 4.01562 62.6051 4.01562 69.0227C4.01562 75.4404 9.1963 80.6429 15.587 80.6429Z" fill="#EBF86C" stroke="#1A1A1A" stroke-width="1.21932" stroke-miterlimit="10"/><path d="M15.5859 85.1361V69.0227" stroke="#1A1A1A" stroke-width="1.21932" stroke-miterlimit="10"/><path d="M10.875 72.8208L15.5877 76.7897" stroke="#1A1A1A" stroke-width="1.21932" stroke-miterlimit="10"/><path d="M15.5859 71.9552L20.073 69.0227" stroke="#1A1A1A" stroke-width="1.21932" stroke-miterlimit="10"/><path d="M25.5873 85.6726H0.304688" stroke="#1A1A1A" stroke-width="1.21932" stroke-miterlimit="10"/><path d="M29.0307 11.9399H67.1833C69.1098 11.9399 70.6767 13.5068 70.6767 15.4333V85.6724H25.5312V15.4333C25.5312 13.5068 27.0981 11.9399 29.0246 11.9399H29.0307Z" fill="#CCA4FF" stroke="#1A1A1A" stroke-width="1.21932" stroke-miterlimit="10"/><path d="M42.6457 19.6157H32.4766V29.8154H42.6457V19.6157Z" fill="white" stroke="#1A1A1A" stroke-width="1.21932" stroke-miterlimit="10"/><path d="M42.6457 36.9119H32.4766V40.7588H42.6457V36.9119Z" fill="white" stroke="#1A1A1A" stroke-width="1.21932" stroke-miterlimit="10"/><path d="M59.2629 19.6157H49.0938V29.8154H59.2629V19.6157Z" fill="white" stroke="#1A1A1A" stroke-width="1.21932" stroke-miterlimit="10"/><path d="M59.2629 36.9119H49.0938V40.7588H59.2629V36.9119Z" fill="white" stroke="#1A1A1A" stroke-width="1.21932" stroke-miterlimit="10"/><path d="M42.6457 48.5867H32.4766V61.1884H42.6457V48.5867Z" fill="white" stroke="#1A1A1A" stroke-width="1.21932" stroke-miterlimit="10"/><path d="M59.2629 48.5867H49.0938V61.1884H59.2629V48.5867Z" fill="white" stroke="#1A1A1A" stroke-width="1.21932" stroke-miterlimit="10"/><path d="M60.1948 33.8025H93.4152C95.3417 33.8025 96.9086 35.3693 96.9086 37.2958V85.6725H56.6953V37.2958C56.6953 35.3693 58.2621 33.8025 60.1887 33.8025H60.1948Z" fill="white" stroke="#1A1A1A" stroke-width="1.21932" stroke-miterlimit="10"/><path d="M74.1924 40.3198H65.1328V53.7202H74.1924V40.3198Z" fill="white" stroke="#1A1A1A" stroke-width="1.21932" stroke-miterlimit="10"/><path d="M74.1924 60.0486H65.1328V71.2725H74.1924V60.0486Z" fill="white" stroke="#1A1A1A" stroke-width="1.21932" stroke-miterlimit="10"/><path d="M88.9892 40.3198H79.9297V53.7202H88.9892V40.3198Z" fill="white" stroke="#1A1A1A" stroke-width="1.21932" stroke-miterlimit="10"/><path d="M87.3932 48.099L95.0994 42.9352C95.8553 42.4292 96.843 42.4292 97.599 42.9352L105.305 48.099C105.982 48.5502 106.884 48.0685 106.884 47.2577V25.6818C106.884 24.6758 106.067 23.8589 105.061 23.8589H87.6432C86.6373 23.8589 85.8203 24.6758 85.8203 25.6818V47.2577C85.8203 48.0685 86.7287 48.5502 87.3993 48.099H87.3932Z" fill="#EBF86C" stroke="#1A1A1A" stroke-width="1.21932" stroke-miterlimit="10"/><path d="M97.109 28.3338L97.9016 30.7785C98.0113 31.1077 98.3162 31.3333 98.6637 31.3333H101.236C102.011 31.3333 102.334 32.3271 101.706 32.7843L99.627 34.2963C99.3465 34.4975 99.2307 34.8633 99.3343 35.1925L100.127 37.6372C100.365 38.3749 99.5233 38.9907 98.8954 38.5334L96.8164 37.0215C96.536 36.8203 96.158 36.8203 95.8775 37.0215L93.7986 38.5334C93.1706 38.9907 92.3293 38.3749 92.5671 37.6372L93.3596 35.1925C93.4694 34.8633 93.3474 34.5036 93.067 34.2963L90.988 32.7843C90.3601 32.3271 90.6832 31.3333 91.4575 31.3333H94.0303C94.3778 31.3333 94.6826 31.1077 94.7923 30.7785L95.5849 28.3338C95.8227 27.5961 96.8713 27.5961 97.109 28.3338Z" fill="white" stroke="#1A1A1A" stroke-width="1.12787" stroke-miterlimit="10"/><path d="M88.9892 60.0486H79.9297V71.2725H88.9892V60.0486Z" fill="white" stroke="#1A1A1A" stroke-width="1.21932" stroke-miterlimit="10"/><path d="M34.3682 78.9112C43.7791 78.9112 51.4082 71.2494 51.4082 61.798C51.4082 52.3467 43.7791 44.6848 34.3682 44.6848C24.9572 44.6848 17.3281 52.3467 17.3281 61.798C17.3281 71.2494 24.9572 78.9112 34.3682 78.9112Z" fill="white" stroke="#1A1A1A" stroke-width="1.21932" stroke-miterlimit="10"/><path d="M34.3672 85.5322V61.7981" stroke="#1A1A1A" stroke-width="1.21932" stroke-miterlimit="10"/><path d="M27.4297 67.3948L34.3615 73.2414" stroke="#1A1A1A" stroke-width="1.21932" stroke-miterlimit="10"/><path d="M34.3672 66.1206L40.982 61.7981" stroke="#1A1A1A" stroke-width="1.21932" stroke-miterlimit="10"/><path d="M32.8898 10.1964C32.8898 8.24552 31.2437 6.6604 29.2074 6.6604C27.6894 6.6604 26.3908 7.54441 25.8238 8.80641C25.2568 7.54441 23.9521 6.6604 22.4402 6.6604C20.4039 6.6604 18.7578 8.23942 18.7578 10.1964C18.7578 15.8663 25.8238 19.6157 25.8238 19.6157C25.8238 19.6157 32.8898 15.8602 32.8898 10.1964Z" fill="white" stroke="#1A1A1A" stroke-width="1.21932" stroke-linejoin="bevel"/><path d="M115.691 85.6726H97.1875" stroke="#1A1A1A" stroke-width="1.21932" stroke-miterlimit="10"/><path d="M14.2128 8.51978H10.5" stroke="#1F2024" stroke-width="1.21932" stroke-miterlimit="10"/><path d="M15.52 5.04463L12.8984 2.41699" stroke="#1F2024" stroke-width="1.21932" stroke-miterlimit="10"/><path d="M18.875 3.47786V0.307617" stroke="#1F2024" stroke-width="1.21932" stroke-miterlimit="10"/></svg>