<svg xmlns="http://www.w3.org/2000/svg" fill="none" viewBox="0 0 104 104"><path fill="#ABD1FF" stroke="#1F2024" stroke-miterlimit="10" stroke-width="1.096" d="M93.184 34.41h-44.93a5.222 5.222 0 0 0-5.223 5.223v15.983a5.222 5.222 0 0 0 5.222 5.222h44.931a5.222 5.222 0 0 0 5.222-5.222V39.633a5.222 5.222 0 0 0-5.222-5.222Z"/><path fill="#fff" stroke="#1A1A1A" stroke-miterlimit="10" stroke-width="1.096" d="M30.746 50.427v25.967a4.35 4.35 0 0 0 4.35 4.351h4.494v7.447l8.761-7.447h36.351a4.352 4.352 0 0 0 4.356-4.35V50.426c0-2.4-1.945-4.35-4.356-4.35H35.097a4.35 4.35 0 0 0-4.35 4.35Z"/><path fill="#EBF86C" stroke="#1A1A1A" stroke-miterlimit="10" stroke-width="1.096" d="M99.397 68.164H71.025a2.603 2.603 0 0 0-2.603 2.603v17.627a2.603 2.603 0 0 0 2.603 2.603h28.372A2.603 2.603 0 0 0 102 88.394V70.767a2.603 2.603 0 0 0-2.603-2.603Z"/><path fill="#EBF86C" d="m98.269 71.994-13.058 7.59-12.559-7.59"/><path stroke="#1A1A1A" stroke-miterlimit="10" stroke-width="1.096" d="m98.269 71.994-13.058 7.59-12.559-7.59"/><path fill="#CCA4FF" stroke="#1A1A1A" stroke-miterlimit="10" stroke-width="1.096" d="M45.633 55.961v14.082a2.356 2.356 0 0 1-2.356 2.357H16.373a2.36 2.36 0 0 1-2.361-2.357V55.961a2.357 2.357 0 0 1 2.361-2.356h26.904a2.356 2.356 0 0 1 2.356 2.356Z"/><path stroke="#1A1A1A" stroke-miterlimit="10" stroke-width="1.096" d="M19.633 59.934h20.29M19.633 65.501h14.016"/><path fill="#fff" stroke="#1A1A1A" stroke-miterlimit="10" stroke-width="1.096" d="M20.936 46.635a4.647 4.647 0 1 0 0-9.293 4.647 4.647 0 0 0 0 9.293Z"/><path fill="#EBF86C" stroke="#1A1A1A" stroke-miterlimit="10" stroke-width="1.096" d="M28.302 38.712v-6.186a7.366 7.366 0 0 0-7.364-7.364 7.366 7.366 0 0 0-7.365 7.364v6.186h-2.038a1.946 1.946 0 0 0-1.945 1.945 2.13 2.13 0 0 0 2.131 2.132H30.27a2.018 2.018 0 0 0 2.017-2.017c0-1.14-.926-2.065-2.066-2.065h-1.923l.005.005Z"/><path fill="#ABD1FF" stroke="#1F2024" stroke-miterlimit="10" stroke-width="1.096" d="M26.585 30.493a2.69 2.69 0 1 0 0-5.38 2.69 2.69 0 0 0 0 5.38Z"/><path stroke="#1A1A1A" stroke-miterlimit="10" stroke-width="1.096" d="M7.934 27.803H2M9.16 22.92 4.97 18.723M13.914 19.929V14"/><path fill="#fff" stroke="#1A1A1A" stroke-miterlimit="10" stroke-width="1.282" d="M68.367 23.266h.46a8.089 8.089 0 0 1 8.088 8.087v8.088H68.36a8.089 8.089 0 0 1 0-16.175h.005Z"/><path fill="#1A1A1A" d="M70.84 32.553a.964.964 0 1 0 0-1.929.964.964 0 0 0 0 1.93ZM66.82 32.553a.964.964 0 1 0 0-1.929.964.964 0 0 0 0 1.93Z"/></svg>