<svg xmlns="http://www.w3.org/2000/svg" fill="none" viewBox="0 0 104 105"><path fill="#EBF86C" stroke="#1A1A1A" stroke-miterlimit="10" stroke-width="1.907" d="M79.954 35.453H25.906a4.813 4.813 0 0 0-4.812 4.813v22.111a4.813 4.813 0 0 0 4.812 4.813h54.048a4.813 4.813 0 0 0 4.812-4.813V40.266a4.813 4.813 0 0 0-4.812-4.813Z"/><path fill="#ABD1FF" stroke="#1F2024" stroke-miterlimit="10" stroke-width="1.907" d="M60.86 49.11H6.813A4.813 4.813 0 0 0 2 53.921v22.111a4.813 4.813 0 0 0 4.813 4.813H60.86a4.813 4.813 0 0 0 4.813-4.813V53.922a4.813 4.813 0 0 0-4.813-4.813Z"/><path stroke="#1A1A1A" stroke-miterlimit="10" stroke-width="1.907" d="M72.878 82.483c10.758 0 19.48-8.722 19.48-19.48 0-10.758-8.722-19.48-19.48-19.48-10.758 0-19.48 8.722-19.48 19.48 0 10.758 8.722 19.48 19.48 19.48ZM87.906 76.664l10.949 10.949M77.96 27.367V16.5M88.148 31.212l7.681-7.68M92.734 41.023h9.271"/></svg>