<svg xmlns="http://www.w3.org/2000/svg" fill="none" viewBox="0 0 242 211"><path fill="#ABD1FF" stroke="#1F2024" stroke-miterlimit="10" stroke-width="1.79" d="M56.913 35.22h-39.37a5.59 5.59 0 0 0-5.59 5.59v42.23a5.59 5.59 0 0 0 5.59 5.59h39.37a5.59 5.59 0 0 0 5.59-5.59V40.81a5.59 5.59 0 0 0-5.59-5.59Z"/><path fill="#ABD1FF" stroke="#1F2024" stroke-miterlimit="10" stroke-width="1.79" d="M4.242 58.93h28.63a3.25 3.25 0 0 0 3.25-3.25v-6.96a3.25 3.25 0 0 0-3.25-3.25H4.242a3.25 3.25 0 0 0-3.25 3.25v6.96a3.25 3.25 0 0 0 3.25 3.25Z"/><path stroke="#1F2024" stroke-miterlimit="10" stroke-width="1.79" d="M36.553 51.04h4.3c1.25 0 2.26 1.01 2.26 2.26v5.23c0 1.24-.74 2.37-1.88 2.86l-21.72 9.33a3.107 3.107 0 0 0-1.88 2.86v2.44"/><path fill="#ABD1FF" stroke="#1F2024" stroke-miterlimit="10" stroke-width="1.79" d="M8.734 94.47h15.61c1.75 0 3.14-1.49 3.01-3.23l-1.2-12.64a2.334 2.334 0 0 0-2.32-2.16H9.224c-1.22 0-2.23.94-2.32 2.16l-1.2 12.64a3.011 3.011 0 0 0 3.01 3.23h.02Z"/><path fill="#ABD1FF" stroke="#1F2024" stroke-miterlimit="10" stroke-width="1.93" d="M139.434 1.62h-90.73a7.97 7.97 0 0 0-7.97 7.97v47.48a7.97 7.97 0 0 0 7.97 7.97h90.73a7.97 7.97 0 0 0 7.97-7.97V9.59a7.97 7.97 0 0 0-7.97-7.97Z"/><path fill="#ABD1FF" stroke="#1F2024" stroke-miterlimit="10" stroke-width="1.93" d="M103.144 8.28h-6.05v37.46h6.05V8.28ZM106.916 45.75v6.5c-4.21-1.48-8.8-1.63-13.1-.22-.17 0-.31.05-.48.07v-6.36h13.58v.01Z"/><path fill="#ABD1FF" stroke="#1F2024" stroke-miterlimit="10" stroke-width="1.93" d="M121.724 92.26h-4.18l-3.86-9.04a.67.67 0 0 0-1.23-.01l-4.08 9.05h-28.27c-2.19 0-3.86-1.98-3.49-4.14l3.33-19.27c.67-3.85 2.25-7.51 4.71-10.5 1.96-2.39 4.73-4.73 8.56-6.12.19-.07.38-.14.6-.19 4.3-1.41 8.89-1.27 13.1.22 2.65.91 5.12 2.39 7.27 4.35-.19.07-.36.17-.53.26-1.77 1.1-2.87 2.85-2.87 5.02 0 3.25 2.73 5.95 6 5.95.55 0 1.24-.14 1.79-.29.22-.07.41-.14.6-.24l4.63 22.38c.27 1.32-.74 2.56-2.09 2.56l.01.01Z"/><path stroke="#1F2024" stroke-miterlimit="10" stroke-width="1.93" d="M88.633 75.38v16.81M96.11 83.55v8.64M103.586 75.38v16.81"/><path fill="#ABD1FF" stroke="#1F2024" stroke-miterlimit="10" stroke-width="1.93" d="M87.022 20.45c1.7 0 3.03 1.32 3.03 3s-1.33 3-3.03 3c-1.7 0-3.03-1.32-3.03-3s1.33-3 3.03-3ZM119.561 35.35c1.7 0 3.03 1.32 3.03 3s-1.33 3-3.03 3c-1.7 0-3.03-1.32-3.03-3s1.33-3 3.03-3ZM122.817 61.89c0 2.46-1.48 4.49-3.63 5.43-.19.1-.38.17-.6.24-.55.14-1.24.29-1.79.29-3.28 0-6-2.7-6-5.95 0-2.18 1.1-3.92 2.87-5.02.17-.1.34-.19.53-.26.81-.38 1.72-.67 2.61-.67 3.3 0 6.03 2.7 6.03 5.95l-.02-.01Z"/><path fill="#ABD1FF" d="m72.72 14.75-14.2 13.1-5.63-6.07"/><path stroke="#1F2024" stroke-miterlimit="10" stroke-width="1.93" d="m72.72 14.75-14.2 13.1-5.63-6.07"/><path fill="#1F2024" d="M130.355 62.76c-.17.95-.31 2.04.32 2.76.35.39.86.59 1.35.76 6.29 2.17 13.33 2.06 19.55-.32-4.96-3.64-9.69-7.59-14.65-11.23-6.41-4.72-5.51 2.21-6.58 8.02l.01.01Z"/><path fill="#ABD1FF" d="M169.962 106.24a478.104 478.104 0 0 1-24.54 52.199c17.78 4.91 33.94 15.5 45.54 29.84 4.22-8.5 8.43-16.999 12.65-25.509"/><path stroke="#1F2024" stroke-miterlimit="10" stroke-width="2.04" d="M169.962 106.24a478.104 478.104 0 0 1-24.54 52.199c17.78 4.91 33.94 15.5 45.54 29.84 4.22-8.5 8.43-16.999 12.65-25.509"/><path stroke="#1F2024" stroke-miterlimit="10" stroke-width=".99" d="M143.585 160.76c-20.65 20.77-49.33 6.809-73.33 2.429-1.61-.29-3.53-.489-4.65.701-1.55 1.64-.32 4.31 1.03 6.12 25.74 34.66 83.44 56.97 118.83 22.76"/><path fill="#ABD1FF" d="M82.75 143.14c1.16-12.04 19.09-44.33 50.81-60.25l-50.81 60.25Z"/><path stroke="#1F2024" stroke-miterlimit="10" stroke-width="2.06" d="M82.75 143.14c1.16-12.04 19.09-44.33 50.81-60.25"/><path fill="#ABD1FF" d="M146.505 62.65c-3.66-1.99-7.75-5.28-11.45-8.65-7.64-6.95-9.43-18.26-4.44-27.29 3.57-6.45 10.19-14.04 14.38-16.4 2.14-1.21 3.55-2.54 5.74-3.67 5.37-2.78 11.7 4.32 13.09 10.2.63 2.67.41 5.46.38 8.2-.03 2.57.12 5.14.43 7.69.56 4.52 1.65 8.98 1.88 13.54.23 4.55-.5 9.35-3.23 13-2.73 3.65-12.78 5.57-16.78 3.39v-.01Z"/><path stroke="#1F2024" stroke-miterlimit="10" stroke-width="1.55" d="M142.385 34.7c-1.09 1.62-2.01 3.13-2.56 4.94-.69 2.29.22 4.63 3.53 5.28"/><path fill="#EBF86C" d="M147.738 51.21c-2.58.22-5.19-.07-7.66-.84l7.66.84Z"/><path stroke="#1F2024" stroke-miterlimit="10" stroke-width="1.55" d="M147.738 51.21c-2.58.22-5.19-.07-7.66-.84"/><path fill="#1F2024" d="M163.606 39.62c1.23-.18 2.53-.48 3.89-.89 1.57-.47 3.33-.82 4.8-.09 2.27 1.13 2.63 4.58 1.03 6.56-1.59 1.98-4.48 2.54-6.95 1.96-4.75-1.1-5.6 4.55-6.02 8.18-.28 2.35-.44 4.75.11 7.05s1.9 4.51 4 5.59c2.18 1.12 4.77.9 7.21.64 4.12-.43 8.29-.87 12.17-2.31.28-.11.59-.25.7-.53.13-.33-.09-.7-.3-.98-1.48-2.01-3.37-3.81-4.19-6.17-1.03-2.95-.16-6.31 1.58-8.91 2.89-4.31 8.3-6.31 10.55-11.08 2.22-4.71.45-10.53-2.98-14.45-7.66-8.74-20.74-11.28-31.57-13.51-1.56-.32-3.25-.61-4.7.08-1.96.93-2.74 3.27-3.17 5.4-1.13 5.68-1.04 11.85 1.73 16.93 3.17 5.81 7.14 7.25 12.1 6.54l.01-.01Z"/><path fill="#1F2024" d="M133.135 42.02c-.65-.44-1.09-1.15-1.51-2.02-2.11-4.32-4.89-9.01-5.45-13.88-.25-2.15-.09-4.35.54-6.42 1.26-4.14 4.37-7.4 8.3-9.13 2.35-1.04 4.91-1.54 7.47-1.64 6.55-.26 15.15 1.75 21.97 3.2-10.29 1.36-25.7 6.01-28.74 17.99-1.03 4.03-.49 8.35-1.17 12.4-.57-.06-1.03-.23-1.42-.5h.01ZM204.413 35.335c3.427-3.818 2.574-10.172-1.906-14.194-4.48-4.02-10.89-4.185-14.317-.367-3.427 3.818-2.574 10.174 1.906 14.195 4.48 4.02 10.89 4.185 14.317.366Z"/><path fill="#ABD1FF" stroke="#1F2024" stroke-miterlimit="10" stroke-width="1.87" d="M131.284 122.63h-79.08a7.79 7.79 0 0 0-7.79 7.79v49.18a7.79 7.79 0 0 0 7.79 7.79h79.08a7.79 7.79 0 0 0 7.79-7.79v-49.18a7.79 7.79 0 0 0-7.79-7.79Z"/><path stroke="#1F2024" stroke-miterlimit="10" stroke-width="2.06" d="M150.766 65.66c-2.85 7.47-10.75 13.62-16.68 16.94 14.24 13 35.4 16.52 52.57 8.62"/><path stroke="#1F2024" stroke-miterlimit="10" stroke-width="2.06" d="M161.773 53.18c2.23 9.84 7.58 18.24 14.05 26.08 7.39 8.96 16.02 16.84 23.35 25.849 19.82 24.36 29.15 55.651 33.91 86.701"/><path fill="#ABD1FF" d="M143.582 160.76c-7.38 7.42-16.989 11.2-27.439 10.73-10.14-.45-19.51-4.471-29.07-7.381-3.22-.98-1.17 2.501-1.21 3.941 0 .13-.02.28-.11.38-.16.17-.44.08-.65-.02-3.85-1.74-15.38-8.87-19.5-4.52-1.55 1.64-.31 4.31 1.03 6.12 25.74 34.66 83.439 56.97 118.829 22.76"/><path stroke="#1F2024" stroke-miterlimit="10" stroke-width="2.04" d="M143.582 160.76c-7.38 7.42-16.989 11.2-27.439 10.73-10.14-.45-19.51-4.471-29.07-7.381-3.22-.98-1.17 2.501-1.21 3.941 0 .13-.02.28-.11.38-.16.17-.44.08-.65-.02-3.85-1.74-15.38-8.87-19.5-4.52-1.55 1.64-.31 4.31 1.03 6.12 25.74 34.66 83.439 56.97 118.829 22.76"/><path fill="#ABD1FF" d="m72.72 32.71-14.2 13.1-5.63-6.08"/><path stroke="#1F2024" stroke-miterlimit="10" stroke-width="1.93" d="m72.72 32.71-14.2 13.1-5.63-6.08"/><path fill="#fff" d="M229.883 173.529c10.74-.1 21.49.15 32.22.74l-32.22-.74Z"/><path stroke="#1F2024" stroke-miterlimit="10" stroke-width="2.06" d="M229.883 173.529c10.74-.1 21.49.15 32.22.74"/></svg>