<svg xmlns="http://www.w3.org/2000/svg" fill="none" viewBox="0 0 243 251"><path fill="#CCA4FF" d="M175.536 286.399c-25.75-37.8-68.27-101.06-90.38-138.58l90.38 138.58Z"/><path stroke="#1F2024" stroke-miterlimit="10" stroke-width="1.95" d="M175.536 286.399c-25.75-37.8-68.27-101.06-90.38-138.58"/><path fill="#CCA4FF" stroke="#1F2024" stroke-miterlimit="10" stroke-width="2.07" d="M143.327 76.33h-68.8c-6.716 0-12.16 5.445-12.16 12.16V220.07c0 6.716 5.444 12.16 12.16 12.16h68.8c6.716 0 12.16-5.444 12.16-12.16V88.49c0-6.715-5.444-12.16-12.16-12.16Z"/><path fill="#CCA4FF" d="M162.801 196.689c-4.17-10.05-20.29-30.959-20.44-41.849-.03-2.07.52-4.751 2.57-5.021 1-.13 1.939.421 2.779.971 10.84 7.07 62.42 56.02 86.99 77.96"/><path stroke="#1F2024" stroke-miterlimit="10" stroke-width="1.95" d="M162.801 196.689c-4.17-10.05-20.29-30.959-20.44-41.849-.03-2.07.52-4.751 2.57-5.021 1-.13 1.939.421 2.779.971 10.84 7.07 62.42 56.02 86.99 77.96"/><path fill="#CCA4FF" stroke="#1F2024" stroke-miterlimit="10" stroke-width="2.07" d="M124.203 67.9v45.419c0 4.2 3.41 7.611 7.61 7.611h7.86v13.02l15.33-13.02h63.59c4.21 0 7.62-3.411 7.62-7.611v-45.42c0-4.2-3.41-7.609-7.62-7.609h-86.77c-4.2 0-7.61 3.41-7.61 7.61h-.01Z"/><mask id="a" width="89" height="109" x="154" y="14" maskUnits="userSpaceOnUse" style="mask-type:luminance"><path fill="#fff" d="M154.578 14.72h87.6v55.94c0 8.06 2.49 16.75-4.76 22.22-3.12 2.36-6.81 4.24-8.84 7.58-3.05 5.03-.54 13.55-4.4 18-4.78 5.53-14.96 3.08-21.46 3.08h-48.14V14.71v.01Z"/></mask><g mask="url(#a)"><path fill="#1F2024" d="M172.711 89.36c-.14.77-.25 1.67.26 2.26.28.32.7.48 1.11.62 5.14 1.78 10.89 1.68 15.97-.26-4.06-2.97-7.92-6.2-11.97-9.18-5.24-3.85-4.5 1.81-5.37 6.55v.01Z"/><path stroke="#1F2024" stroke-miterlimit="10" stroke-width="1.68" d="M133.82 155.029c.94-9.84 15.6-36.219 41.51-49.229"/><path fill="#CCA4FF" d="M185.918 89.28c-2.99-1.63-6.33-4.32-9.36-7.07-6.24-5.67-7.71-14.92-3.62-22.3 2.91-5.27 8.32-11.47 11.75-13.4 1.75-.99 2.9-2.07 4.69-3 4.39-2.27 9.56 3.53 10.69 8.33.52 2.18.33 4.46.31 6.7-.02 2.1.09 4.2.35 6.28.46 3.7 1.35 7.34 1.54 11.06.19 3.72-.41 7.64-2.64 10.62-2.23 2.98-10.44 4.55-13.71 2.77v.01Z"/><path stroke="#1F2024" stroke-miterlimit="10" stroke-width="1.26" d="M182.554 66.44c-.89 1.32-1.65 2.56-2.09 4.04-.56 1.87.18 3.78 2.89 4.31"/><path fill="#EBF86C" d="M186.924 79.93c-2.1.18-4.24-.05-6.26-.69l6.26.69Z"/><path stroke="#1F2024" stroke-miterlimit="10" stroke-width="1.26" d="M186.924 79.93c-2.1.18-4.24-.05-6.26-.69"/><path fill="#1F2024" d="M199.89 70.46c1.01-.14 2.06-.4 3.17-.73 1.28-.39 2.72-.67 3.92-.07 1.86.92 2.15 3.74.84 5.36s-3.66 2.07-5.68 1.6c-3.88-.9-4.57 3.72-4.92 6.68-.22 1.92-.36 3.88.09 5.76.45 1.88 1.55 3.68 3.26 4.57 1.78.92 3.9.73 5.89.53 3.37-.35 6.77-.71 9.95-1.89.23-.09.49-.2.57-.43.11-.27-.07-.57-.24-.8-1.21-1.64-2.75-3.11-3.42-5.04-.84-2.41-.13-5.16 1.29-7.28 2.36-3.52 6.78-5.15 8.62-9.05 1.82-3.85.37-8.61-2.44-11.8-6.26-7.14-16.95-9.22-25.79-11.04-1.28-.26-2.66-.5-3.84.06-1.6.76-2.24 2.67-2.59 4.41-.92 4.64-.85 9.68 1.41 13.83 2.59 4.74 5.83 5.92 9.88 5.35l.03-.02Z"/><path fill="#1F2024" d="M174.992 72.41c-.53-.36-.89-.94-1.24-1.65-1.72-3.53-3.99-7.36-4.45-11.34-.2-1.76-.08-3.55.44-5.25 1.03-3.38 3.57-6.04 6.78-7.46 1.92-.85 4.02-1.25 6.11-1.34 5.35-.21 12.38 1.43 17.95 2.61-8.41 1.11-20.99 4.91-23.48 14.7-.84 3.29-.4 6.82-.95 10.13-.47-.05-.84-.19-1.16-.41v.01ZM233.2 67.014c2.8-3.12 2.104-8.31-1.554-11.593-3.658-3.283-8.893-3.416-11.693-.297-2.8 3.12-2.105 8.31 1.553 11.594 3.658 3.283 8.894 3.416 11.694.296Z"/><path stroke="#1F2024" stroke-miterlimit="10" stroke-width="2.14" d="M189.396 91.73c-2.33 6.1-8.78 11.129-13.63 13.839 11.63 10.62 28.93 13.49 42.95 7.04"/><path stroke="#1F2024" stroke-miterlimit="10" stroke-width="2.14" d="M198.383 81.53c1.82 8.04 6.2 14.9 11.48 21.31 6.04 7.32 13.09 13.76 19.08 21.12 16.2 19.9 23.81 45.47 27.7 70.83"/></g><path fill="#CCA4FF" stroke="#1F2024" stroke-miterlimit="10" stroke-width="2.07" d="M154.659 1.51h1.09c10.52 0 19.06 8.54 19.06 19.06v19.06h-20.14c-10.52 0-19.06-8.54-19.06-19.06s8.54-19.06 19.06-19.06h-.01ZM70.981 109.72h-38.42a3.53 3.53 0 0 0-3.53 3.53v23.87c0 1.95 1.58 3.529 3.53 3.529h38.42c1.95 0 3.53-1.579 3.53-3.529v-23.87a3.53 3.53 0 0 0-3.53-3.53Z"/><path fill="#CCA4FF" d="m69.46 114.91-17.69 10.27-17.02-10.27"/><path stroke="#1F2024" stroke-miterlimit="10" stroke-width="2.07" d="m69.46 114.91-17.69 10.27-17.02-10.27M21.498 111.99h-6.67M22.876 106.5l-4.72-4.721M28.219 103.13v-6.67"/><path stroke="#1F2024" stroke-miterlimit="10" stroke-width="2" d="M103.719 220.6h12.53"/><path fill="#1F2024" d="M160.491 23.41a2.28 2.28 0 1 0 0-4.56 2.28 2.28 0 0 0 0 4.56ZM151.022 23.41a2.28 2.28 0 1 0 0-4.56 2.28 2.28 0 0 0 0 4.56Z"/><path stroke="#1F2024" stroke-miterlimit="10" stroke-width="1.95" d="M206.242 202.09h28.47"/><path fill="#CCA4FF" stroke="#1F2024" stroke-miterlimit="10" stroke-width="2.07" d="M98.584 45.18v33.17c0 3.07-2.49 5.56-5.56 5.56h-5.74v9.51l-11.19-9.51h-46.44c-3.08 0-5.56-2.49-5.56-5.56V45.18a5.56 5.56 0 0 1 5.56-5.56h63.37a5.56 5.56 0 0 1 5.56 5.56Z"/><path stroke="#1F2024" stroke-miterlimit="10" stroke-width="2" d="M37.328 54.54h47.79M37.328 67.66h33.01"/><path fill="#CCA4FF" stroke="#1F2024" stroke-miterlimit="10" stroke-width="2.07" d="M46.15 44.44v-7.13h-4.24c-.48-2.37-1.42-4.57-2.72-6.5l3.01-3.01-5.04-5.04-3.03 3.03a18.07 18.07 0 0 0-6.49-2.68v-4.29h-7.13v4.29a18.07 18.07 0 0 0-6.49 2.68l-3.03-3.03-5.04 5.04 3.01 3.01c-1.3 1.94-2.24 4.14-2.72 6.5H2v7.13h4.21c.46 2.38 1.39 4.6 2.69 6.56l-2.96 2.96L10.98 59l2.95-2.95c1.95 1.31 4.18 2.26 6.57 2.73v4.16h7.13v-4.16c2.39-.48 4.62-1.42 6.57-2.73L37.15 59l5.04-5.04L39.23 51c1.3-1.95 2.23-4.17 2.69-6.56H46.15Z"/><path fill="#CCA4FF" stroke="#1F2024" stroke-miterlimit="10" stroke-width="2.07" d="M24.077 50.15a9.21 9.21 0 1 0 0-18.42 9.21 9.21 0 0 0 0 18.42Z"/></svg>