<svg xmlns="http://www.w3.org/2000/svg" fill="none" viewBox="0 0 232 199"><path fill="#EBF86C" d="M256.607 143.4h33.51l9.9-52.11c1.43-9-4.67-17.46-13.63-18.89-4.51-.72-8.88.47-12.29 2.98-1.14-25.7-8.7-44.88-58.7-44.88h-4.91c-25.05 0-37.84 4.58-46.12 12.25"/><path stroke="#1F2024" stroke-miterlimit="10" stroke-width="2.02" d="M256.607 143.4h33.51l9.9-52.11c1.43-9-4.67-17.46-13.63-18.89-4.51-.72-8.88.47-12.29 2.98-1.14-25.7-8.7-44.88-58.7-44.88h-4.91c-25.05 0-37.84 4.58-46.12 12.25"/><path fill="#EBF86C" d="M150.763 67.25c-3.97.94-9.1 1.22-14.01 1.18-10.11-.07-18.82-7.14-21.09-16.99-1.62-7.03-1.76-16.9-.25-21.36.77-2.28.93-4.17 1.78-6.43 2.1-5.54 11.35-4.5 16.21-1.13 2.21 1.53 3.87 3.71 5.64 5.73 1.66 1.89 3.44 3.67 5.34 5.32 3.37 2.93 7.08 5.47 10.23 8.63 3.15 3.17 5.75 7.14 6.15 11.59.4 4.45-5.67 12.42-10.01 13.45l.01.01Z"/><path stroke="#1F2024" stroke-miterlimit="10" stroke-width="2.02" d="M113.04 107.71c-7.37 2.24-15.3.521-22.81-1.219-15.01-3.47-50.36-13.46-65.37-16.93C16.57 87.65 5.51 87 2 94.74a829.484 829.484 0 0 0 57.7 43.7c7.72 5.33 15.76 10.639 24.91 12.689 14.87 3.33 29.28-2.289 42.5-10.719"/><path stroke="#1F2024" stroke-miterlimit="10" stroke-width="2.02" d="M108.695 157.54c-2.58-11.56 4.31-47.08 28.99-71.54"/><path fill="#EBF86C" d="m130.791 182.83 51.59-24.36c1.24-.59 1.16-2.38-.14-2.84-10.82-3.79-43.27-15.17-51.48-17.96-2.36-.8-4.93-.76-7.26.11l-23.04 8.58"/><path stroke="#1F2024" stroke-miterlimit="10" stroke-width="2.02" d="m130.791 182.83 51.59-24.36c1.24-.59 1.16-2.38-.14-2.84-10.82-3.79-43.27-15.17-51.48-17.96-2.36-.8-4.93-.76-7.26.11l-23.04 8.58"/><path stroke="#1F2024" stroke-miterlimit="10" stroke-width="1.8" d="m155.528 157.96-30.02-12M144.317 161.851l-28.7-12.491"/><path fill="#EBF86C" d="M33.17 49.6c-2.22 1.17-4.66 2.6-5.3 5.02-.61 2.31.64 4.64 1.17 6.97.53 2.33-.31 5.5-2.68 5.69"/><path stroke="#1F2024" stroke-miterlimit="10" stroke-width="2.02" d="M33.17 49.6c-2.22 1.17-4.66 2.6-5.3 5.02-.61 2.31.64 4.64 1.17 6.97.53 2.33-.31 5.5-2.68 5.69"/><path fill="#EBF86C" d="M15.64 64.55c2.57-1.69 3.63-5.33 2.37-8.14-.63-1.41-1.78-2.69-1.75-4.24.05-2.28 2.54-3.59 4.66-4.42 5.38-2.1 4.03-4.94 4.3-10.71"/><path stroke="#1F2024" stroke-miterlimit="10" stroke-width="2.02" d="M15.64 64.55c2.57-1.69 3.63-5.33 2.37-8.14-.63-1.41-1.78-2.69-1.75-4.24.05-2.28 2.54-3.59 4.66-4.42 5.38-2.1 4.03-4.94 4.3-10.71"/><path fill="#EBF86C" stroke="#1F2024" stroke-miterlimit="10" stroke-width="2.02" d="M7.23 70.3c-1.95-.28-3.74 1.21-3.76 3.19-.1 12.35 6.61 21.1 16.27 22.47 9.66 1.38 19-5.08 22.36-16.97.54-1.9-.76-3.83-2.72-4.11L7.22 70.3h.01ZM34.512 112.08l64.14 23.351a12.418 12.418 0 0 1 6.61 5.639l19.93 35.88c1.53 2.76-1.12 5.96-4.11 4.98l-64.99-21.31a12.45 12.45 0 0 1-7.26-6.28l-18.6-37.46c-1.39-2.81 1.35-5.87 4.29-4.8h-.01Z"/><path fill="#EBF86C" stroke="#1F2024" stroke-miterlimit="10" stroke-width="2.02" d="M70.77 147.67c.9 2.36 3.54 4.28 5.91 4.28s3.56-1.91 2.66-4.28c-.9-2.36-3.54-4.279-5.91-4.279s-3.56 1.909-2.66 4.279Z"/><path stroke="#1F2024" stroke-miterlimit="10" stroke-width="1.51" d="M129.469 49.57c.27 1.89.58 3.6 1.37 5.27 1 2.12 3.19 3.23 6.03 1.53"/><path fill="#EBF86C" d="M144.169 58.1a19.504 19.504 0 0 1-6.13 4.4l6.13-4.4Z"/><path stroke="#1F2024" stroke-miterlimit="10" stroke-width="1.51" d="M144.169 58.1a19.504 19.504 0 0 1-6.13 4.4"/><path fill="#1F2024" d="M148.161 39.27c.78-.93 1.52-2.01 2.25-3.19.84-1.37 1.89-2.78 3.44-3.2 2.4-.66 4.91 1.62 5.04 4.11.13 2.48-1.6 4.78-3.78 5.98-1.04.57-1.95 1.04-2.18 2.27-.25 1.36-.08 2.92.11 4.28.39 2.83 1.43 5.58 3.03 7.95.63.94 1.41 1.88 2.42 2.43 1.23.67 2.42.2 3.6-.4 2.78-1.42 5.41-3.119 7.85-5.069.27-.21 5.73-5.31 4.76-5.75-3.04-1.37-6.05-2.14-7.56-5.38-1.24-2.65-1.28-5.93-.68-8.75 1.04-4.89 3.33-9.89 1.9-14.68-1.46-4.89-6.56-7.97-11.63-8.58-11.3-1.36-22.5 5.34-31.85 10.8-1.35.79-2.77 1.69-3.37 3.13-.82 1.96.14 4.18 1.22 6.01 2.89 4.88 6.99 9.32 12.34 11.21 6.11 2.16 9.94.62 13.1-3.14l-.01-.03Z"/><path fill="#1F2024" d="M128.458 73.58c-.38.75-.78 1.22-1.2 1.5-.46.3-.97.38-1.53.34-2.4-.17-13-2.59-13.16-3.13-.8-2.73-.03-5.74 1.05-8.29 1.06-2.5 2.28-4.75 4.44-6.45-2.05-1.21-4.17-2.01-6.01-3.64-1.59-1.41-2.91-3.11-3.81-5.03-1.79-3.84-1.66-8.25.08-12.08 1.04-2.29 2.58-4.33 4.38-6.08 4.6-4.47 12.19-8.64 18.1-12.04-6.61 7.72-14.8 21.19-9.18 31.91 1.71 3.27 4.63 5.75 6.57 8.89 2.51 4.08 2.42 9.86.27 14.09v.01Z"/><path fill="#1F2024" d="M125.724 75.42c-.51-.03-1.09-.16-1.74-.31.58.11 1.15.21 1.74.31ZM164.357 18.2c5.893 0 10.671-4.074 10.671-9.1 0-5.025-4.778-9.1-10.671-9.1-5.892 0-10.669 4.075-10.669 9.1 0 5.026 4.777 9.1 10.669 9.1Z"/><path stroke="#1F2024" stroke-miterlimit="10" stroke-width="2.02" d="M148.432 65.42c-.38 7.82-4.259 15.4-10.37 20.29 17.21 7.78 38.001 4.48 51.591-8.09"/><path stroke="#1F2024" stroke-miterlimit="10" stroke-width="2.02" d="M154.531 49.34c5.07 8.48 13 15.11 21.41 20.44 9.6 6.09 20.03 10.81 29.59 16.97 25.86 16.65 44.05 42.96 57.91 70.41"/><path stroke="#1F2024" stroke-miterlimit="10" stroke-width="2.02" d="M188.983 88.16a471.962 471.962 0 0 1-7.671 56.67c18.271-.65 36.711 4.55 51.951 14.66 1.46-9.3 2.91-18.589 4.37-27.889"/><path fill="#EBF86C" d="M180.259 147.57c-13.34 25.79-44.62 21.12-68.62 24.13-1.61.2-3.48.59-4.19 2.05-.98 2.01.98 4.17 2.8 5.48 34.67 25.11 95.87 29.03 119.16-13.85"/><path stroke="#1F2024" stroke-miterlimit="10" stroke-width="2.02" d="M180.259 147.57c-13.34 25.79-44.62 21.12-68.62 24.13-1.61.2-3.48.59-4.19 2.05-.98 2.01.98 4.17 2.8 5.48 34.67 25.11 95.87 29.03 119.16-13.85"/></svg>