<svg width="1800" height="456" viewBox="0 0 1800 456" fill="none" xmlns="http://www.w3.org/2000/svg">
<path d="M963.331 211.893C948.397 196.085 924.504 187.445 895.277 187.445C833.581 187.445 796.76 226.656 796.76 292.341C796.76 358.027 833.581 397.216 895.277 397.216C924.504 397.216 948.397 388.576 963.331 372.768V393.461H999.149V191.2H963.331V211.893ZM962.52 265.355L962.627 267.616H963.096C964.888 275.104 965.805 283.403 965.805 292.341C965.805 301.92 964.76 310.773 962.691 318.667L962.584 319.051C954.733 348.533 932.291 364.768 899.395 364.768C857.197 364.768 832.984 338.357 832.984 292.32C832.984 246.283 857.176 219.872 899.395 219.872C932.184 219.872 954.584 236.021 962.52 265.333V265.355Z" fill="black"/>
<path d="M672.088 187.445C642.861 187.445 618.968 196.085 604.035 211.893V125.451H568.216V393.44H604.035V372.747C618.968 388.555 642.861 397.195 672.088 397.195C733.784 397.195 770.605 357.984 770.605 292.32C770.605 226.656 733.784 187.424 672.088 187.424V187.445ZM667.992 219.893C710.189 219.893 734.403 246.304 734.403 292.341C734.403 338.379 710.189 364.789 667.992 364.789C635.096 364.789 612.653 348.555 604.803 319.072L604.696 318.667C602.627 310.752 601.581 301.899 601.581 292.341C601.581 283.424 602.499 275.104 604.291 267.616L604.867 265.355C612.781 236.043 635.181 219.893 667.992 219.893Z" fill="black"/>
<path d="M1088.19 191.2H1052.38V393.462H1088.19V191.2Z" fill="black"/>
<path d="M1177.24 191.2H1141.42V393.462H1177.24V191.2Z" fill="black"/>
<path d="M1277.74 125.472H1241.92V191.222H1204.59V223.669H1239.87V335.563C1239.87 373.6 1263.64 397.238 1301.89 397.238C1315.97 397.238 1330.31 394.485 1341.23 389.707L1346.67 387.317V353.995L1333.95 359.541C1326.51 362.784 1316.27 364.789 1307.22 364.789C1286.59 364.789 1275.69 355.061 1275.69 336.672V223.669H1349.55V191.222H1277.74V125.472Z" fill="black"/>
<path d="M1475.03 187.445C1448.19 187.445 1426.05 196.128 1411.91 212.043V191.2H1376.09V393.461H1411.91V282.933C1411.91 242.869 1433.41 219.893 1470.91 219.893C1504.22 219.893 1522.54 236.939 1522.54 267.915V393.461H1558.36V267.915C1558.36 217.525 1527.19 187.445 1475.01 187.445H1475.03Z" fill="black"/>
<path d="M1763.39 191.2V211.893C1748.46 196.085 1724.57 187.445 1695.34 187.445C1633.65 187.445 1596.82 226.656 1596.82 292.341C1596.82 358.027 1633.65 397.216 1695.34 397.216C1724.57 397.216 1748.46 388.576 1763.39 372.768V393.461H1799.21V191.2H1763.39ZM1765.85 292.341C1765.85 301.899 1764.8 310.752 1762.73 318.645L1762.63 319.051C1754.78 348.533 1732.33 364.768 1699.44 364.768C1657.24 364.768 1633.03 338.357 1633.03 292.32C1633.03 246.283 1657.24 219.872 1699.44 219.872C1732.23 219.872 1754.65 236.021 1762.56 265.333L1762.67 267.595H1763.14C1764.93 275.083 1765.85 283.403 1765.85 292.32V292.341Z" fill="black"/>
<path d="M1157.46 111.755C1142.83 111.755 1130.93 123.659 1130.93 138.294C1130.93 152.928 1142.83 164.832 1157.46 164.832C1172.1 164.832 1184 152.928 1184 138.294C1184 123.659 1172.1 111.755 1157.46 111.755Z" fill="black"/>
<path d="M1070.3 111.755C1055.66 111.755 1043.76 123.659 1043.76 138.294C1043.76 152.928 1055.66 164.832 1070.3 164.832C1084.93 164.832 1096.83 152.928 1096.83 138.294C1096.83 123.659 1084.93 111.755 1070.3 111.755Z" fill="black"/>
<path d="M339.309 455.2C287.128 455.2 244.696 412.747 244.696 360.587V241.013C244.696 225.44 232.024 212.768 216.451 212.768C200.877 212.768 188.205 225.44 188.205 241.013V335.712C188.205 347.787 178.413 357.579 166.339 357.579C154.264 357.579 144.472 347.787 144.472 335.712V241.013C144.472 201.312 176.771 169.035 216.472 169.035C256.173 169.035 288.472 201.333 288.472 241.013V360.587C288.472 388.64 311.299 411.467 339.352 411.467C367.405 411.467 390.232 388.64 390.232 360.587V193.12C390.232 178.123 383.619 164 372.077 154.4L257.645 59.2322C234.136 39.6695 200.003 39.6695 176.472 59.2322L62.04 154.4C50.4987 164 43.8853 178.102 43.8853 193.12V361.12C43.8853 388.875 66.4774 411.467 94.2321 411.467H122.52C134.595 411.467 144.387 421.259 144.387 433.334C144.387 445.408 134.595 455.2 122.52 455.2H94.2321C42.3494 455.2 0.151978 412.982 0.151978 361.099V193.099C0.151978 165.067 12.5254 138.699 34.072 120.758L148.504 25.5895C188.227 -7.45586 245.891 -7.43452 285.613 25.5895L400.045 120.758C421.613 138.699 433.965 165.067 433.965 193.099V360.566C433.965 412.747 391.512 455.179 339.352 455.179L339.309 455.2Z" fill="black"/>
</svg>
